<svg width="140" height="123" viewBox="0 0 140 123" fill="none" xmlns="http://www.w3.org/2000/svg">
<path d="M0.0199977 108.783C0.0321365 108.834 0.0488532 108.885 0.0699708 108.933C0.0754129 108.964 0.0855212 108.995 0.0999607 109.023L7.37782 121.64L7.4078 121.67C7.42795 121.703 7.45141 121.733 7.47779 121.76C7.51778 121.8 7.55776 121.83 7.59775 121.87C7.62774 121.89 7.63775 121.92 7.66774 121.93C7.67947 121.938 7.69361 121.942 7.7077 121.94C7.81625 121.996 7.93576 122.027 8.05761 122.03H131.891C132.013 122.027 132.132 121.996 132.241 121.94C132.271 121.92 132.291 121.9 132.321 121.88C132.402 121.83 132.47 121.761 132.521 121.68C132.531 121.66 132.551 121.65 132.571 121.631L139.859 109.013C139.869 109.003 139.869 108.983 139.879 108.973C139.898 108.942 139.912 108.909 139.919 108.873C139.929 108.843 139.939 108.803 139.949 108.773C139.957 108.74 139.96 108.707 139.959 108.673C139.959 108.653 139.969 108.643 139.969 108.623C139.969 108.603 139.959 108.593 139.959 108.573C139.959 108.553 139.949 108.503 139.949 108.473C139.949 108.443 139.929 108.403 139.919 108.373C139.908 108.339 139.895 108.305 139.879 108.273C139.869 108.263 139.869 108.243 139.859 108.233L77.947 0.984526C77.9296 0.959138 77.9095 0.935678 77.887 0.91454C77.8557 0.869946 77.8188 0.829616 77.7771 0.794564C77.6987 0.736837 77.615 0.686625 77.5272 0.644594C77.4751 0.628882 77.4214 0.618827 77.3672 0.6146C77.3372 0.6146 77.3072 0.594604 77.2672 0.594604H62.7015C62.6815 0.594604 62.6715 0.604602 62.6515 0.604602C62.6315 0.604602 62.5816 0.6146 62.5516 0.6146L62.4416 0.644594C62.4073 0.655299 62.3739 0.66867 62.3416 0.684586C62.3299 0.692538 62.3157 0.69608 62.3016 0.694584C62.2902 0.706934 62.2767 0.717098 62.2616 0.724578C62.2332 0.742122 62.2065 0.7622 62.1817 0.784566C62.1526 0.808649 62.1258 0.835429 62.1017 0.86455C62.0817 0.894544 62.0617 0.91454 62.0417 0.944534C62.0294 0.955927 62.0192 0.96948 62.0117 0.984526L0.0899539 108.243C0.0755143 108.271 0.065406 108.302 0.059964 108.333C0.0388313 108.382 0.0221141 108.432 0.00999091 108.483C0.00168463 108.533 -0.00167404 108.583 -1.59038e-05 108.633C0.00998115 108.683 0.0100007 108.733 0.0199977 108.783ZM76.8173 2.16429L137.829 107.843H31.2808L37.6589 96.8054H117.345C117.469 96.8044 117.59 96.7699 117.695 96.7055C117.705 96.6955 117.725 96.7055 117.735 96.6955C117.761 96.678 117.784 96.6579 117.805 96.6355C117.848 96.6016 117.888 96.5648 117.925 96.5255C117.955 96.4879 117.982 96.4478 118.005 96.4055C118.035 96.3675 118.056 96.323 118.065 96.2756C118.086 96.2247 118.096 96.1704 118.095 96.1156C118.095 96.0856 118.115 96.0556 118.115 96.0156C118.115 95.9956 118.105 95.9856 118.105 95.9656C118.1 95.9148 118.09 95.8646 118.075 95.8157C118.063 95.7643 118.046 95.7141 118.025 95.6657C118.015 95.6557 118.015 95.6357 118.005 95.6257L64.0511 2.16429H76.8173ZM131.451 120.461H9.4272L62.7015 28.1791L69.0796 39.2169L29.2314 108.233C29.2234 108.245 29.2199 108.259 29.2214 108.273C29.2003 108.322 29.1835 108.372 29.1714 108.423C29.1566 108.472 29.1466 108.522 29.1414 108.573C29.1414 108.593 29.1314 108.603 29.1314 108.623C29.1314 108.643 29.1514 108.683 29.1514 108.723C29.1565 108.777 29.1666 108.831 29.1814 108.883C29.2014 108.933 29.2214 108.973 29.2414 109.013C29.2657 109.055 29.2924 109.095 29.3214 109.133C29.3614 109.173 29.4013 109.203 29.4413 109.243C29.4713 109.263 29.4813 109.293 29.5113 109.303C29.5213 109.313 29.5413 109.303 29.5513 109.313C29.6591 109.372 29.7786 109.406 29.9012 109.413H137.809L131.451 120.461ZM101.41 95.2358H38.5586L69.9894 40.7966L101.41 95.2358ZM62.7015 2.95413L115.976 95.2358H103.23L63.3913 26.2195C63.379 26.2081 63.3688 26.1946 63.3613 26.1795C63.3313 26.1395 63.2913 26.0995 63.2613 26.0595C63.226 26.021 63.1857 25.9873 63.1414 25.9596C63.13 25.9472 63.1164 25.937 63.1014 25.9296C63.0731 25.9151 63.0427 25.905 63.0114 25.8996C62.963 25.8784 62.9128 25.8617 62.8615 25.8496C62.7619 25.8362 62.6611 25.8362 62.5616 25.8496C62.5102 25.8617 62.46 25.8784 62.4116 25.8996C62.3803 25.905 62.3499 25.9151 62.3216 25.9296C62.3102 25.9419 62.2967 25.9521 62.2817 25.9596C62.2417 25.9895 62.2016 26.0295 62.1617 26.0595C62.1203 26.0921 62.0863 26.133 62.0617 26.1795C62.0494 26.1909 62.0392 26.2045 62.0317 26.2195L8.07762 119.681L1.6995 108.643L62.7015 2.95413Z" fill="white"/>
</svg>
