<svg width="141" height="123" viewBox="0 0 141 123" fill="none" xmlns="http://www.w3.org/2000/svg">
<g id="Frame">
<path id="Vector" d="M116.898 101.962C116.908 101.952 116.908 101.932 116.918 101.922C116.938 101.891 116.951 101.858 116.958 101.822C116.968 101.792 116.978 101.752 116.988 101.722C116.996 101.689 117 101.656 116.998 101.622C116.998 101.602 117.008 101.592 117.008 101.572C117.008 101.552 116.998 101.542 116.998 101.522C116.998 101.502 116.988 101.452 116.988 101.422C116.988 101.392 116.968 101.352 116.958 101.322C116.947 101.288 116.934 101.254 116.918 101.222C116.908 101.212 116.908 101.192 116.898 101.182L105.682 81.7572H128.104C128.226 81.7535 128.346 81.7227 128.454 81.6672C128.484 81.6472 128.504 81.6273 128.534 81.6073C128.615 81.5565 128.683 81.4881 128.734 81.4073C128.744 81.3873 128.764 81.3773 128.784 81.3573L140.14 61.6924C140.15 61.6824 140.15 61.6624 140.16 61.6524C140.179 61.6217 140.193 61.5879 140.2 61.5524C140.21 61.5224 140.22 61.4824 140.23 61.4524C140.238 61.4198 140.242 61.3861 140.24 61.3525C140.24 61.3325 140.25 61.3225 140.25 61.3025C140.25 61.2825 140.24 61.2725 140.24 61.2525C140.24 61.2325 140.23 61.1825 140.23 61.1525C140.23 61.1225 140.21 61.0825 140.2 61.0525C140.189 61.0182 140.176 60.9848 140.16 60.9526C140.15 60.9426 140.15 60.9226 140.14 60.9126L128.784 41.2476C128.767 41.2222 128.746 41.1988 128.724 41.1776C128.693 41.1328 128.656 41.0925 128.614 41.0577C128.572 41.0253 128.529 40.9953 128.484 40.9677C128.444 40.9417 128.4 40.9216 128.354 40.9077C128.303 40.8881 128.249 40.878 128.194 40.8777C128.164 40.8777 128.134 40.8577 128.104 40.8577H105.682L116.898 21.4327C116.908 21.4227 116.908 21.4027 116.918 21.3927C116.938 21.3621 116.951 21.3282 116.958 21.2927C116.968 21.2627 116.978 21.2227 116.988 21.1927C116.996 21.1601 117 21.1264 116.998 21.0928C116.998 21.0728 117.008 21.0628 117.008 21.0428C117.008 21.0228 116.998 21.0128 116.998 20.9928C116.998 20.9728 116.988 20.9228 116.988 20.8928C116.988 20.8628 116.968 20.8228 116.958 20.7928C116.947 20.7585 116.934 20.7251 116.918 20.6929C116.908 20.6829 116.908 20.6629 116.898 20.6529L105.552 0.987923C105.535 0.962536 105.515 0.939078 105.492 0.917941C105.462 0.875571 105.429 0.835474 105.392 0.797971C105.351 0.765656 105.307 0.735621 105.262 0.707995C105.222 0.682069 105.178 0.66188 105.132 0.64801C105.081 0.628435 105.027 0.618274 104.972 0.618018C104.942 0.618018 104.912 0.598022 104.882 0.598022H82.1805C82.1605 0.598022 82.1505 0.60802 82.1305 0.60802C82.1105 0.60802 82.0605 0.618018 82.0306 0.618018L81.9206 0.64801C81.8889 0.65707 81.8585 0.670531 81.8306 0.688C81.8188 0.695951 81.8047 0.699493 81.7906 0.697997L81.7606 0.727989C81.7322 0.7455 81.7055 0.765579 81.6807 0.787974C81.6516 0.812055 81.6247 0.838834 81.6007 0.867954C81.5807 0.897946 81.5607 0.917941 81.5407 0.947933C81.5284 0.959326 81.5182 0.972878 81.5107 0.987923L70.2947 20.4129L59.0787 0.987923C59.0612 0.962536 59.0411 0.939078 59.0187 0.917941C58.9848 0.875508 58.948 0.835425 58.9087 0.797971C58.8711 0.767897 58.831 0.741137 58.7888 0.717992C58.7484 0.692066 58.7047 0.671878 58.6588 0.658008C58.608 0.637548 58.5536 0.627355 58.4988 0.628015C58.4688 0.628015 58.4389 0.60802 58.4089 0.60802H35.7069C35.687 0.60802 35.6769 0.618018 35.6569 0.618018C35.6369 0.618018 35.587 0.628015 35.557 0.628015L35.447 0.658008C35.4153 0.667067 35.3849 0.680528 35.357 0.697997C35.3452 0.705949 35.3312 0.709491 35.3171 0.707995C35.3057 0.720344 35.2921 0.730508 35.277 0.737987C35.2486 0.755498 35.2219 0.775576 35.1971 0.797971C35.168 0.822052 35.1411 0.848832 35.1171 0.877951C35.0971 0.907944 35.0771 0.927938 35.0571 0.957931C35.0448 0.969323 35.0346 0.982876 35.0271 0.997921L23.6812 20.6629C23.6667 20.6912 23.6566 20.7215 23.6511 20.7529C23.63 20.8012 23.6132 20.8514 23.6011 20.9028C23.5878 21.0023 23.5878 21.1032 23.6011 21.2027C23.6132 21.2541 23.63 21.3043 23.6511 21.3527C23.6566 21.384 23.6667 21.4144 23.6812 21.4427L34.8972 40.8677H12.4752C12.4552 40.8677 12.4451 40.8777 12.4251 40.8777C12.4051 40.8777 12.3552 40.8877 12.3252 40.8877L12.2152 40.9177C12.1835 40.9267 12.1532 40.9402 12.1252 40.9577C12.1152 40.9677 12.0953 40.9677 12.0853 40.9777L12.0553 41.0077C12.0268 41.0252 12.0001 41.0453 11.9753 41.0676C11.9462 41.0917 11.9194 41.1185 11.8953 41.1476C11.8753 41.1776 11.8554 41.1976 11.8354 41.2276C11.823 41.239 11.8128 41.2526 11.8053 41.2676L0.449369 60.9326C0.43493 60.9609 0.424792 60.9912 0.419351 61.0225C0.398219 61.0709 0.381442 61.1211 0.369319 61.1725C0.355979 61.272 0.355979 61.3729 0.369319 61.4724C0.381442 61.5238 0.398219 61.574 0.419351 61.6224C0.424792 61.6537 0.43493 61.684 0.449369 61.7124L11.8053 81.3773L11.8354 81.4073C11.8555 81.4396 11.8789 81.4698 11.9053 81.4973C11.9453 81.5373 11.9853 81.5673 12.0252 81.6073C12.0552 81.6273 12.0653 81.6572 12.0953 81.6672C12.107 81.6752 12.1211 81.6787 12.1352 81.6772C12.2437 81.7327 12.3632 81.7635 12.485 81.7672H34.9072L23.7012 101.192C23.6867 101.221 23.6766 101.251 23.6712 101.282C23.65 101.331 23.6332 101.381 23.6211 101.432C23.6078 101.532 23.6078 101.633 23.6211 101.732C23.6332 101.783 23.65 101.834 23.6712 101.882C23.6766 101.913 23.6867 101.944 23.7012 101.972L35.0471 121.637L35.0772 121.667C35.0973 121.699 35.1207 121.729 35.1471 121.757C35.1871 121.797 35.2271 121.827 35.267 121.867C35.297 121.887 35.3071 121.917 35.3371 121.927C35.3488 121.935 35.3629 121.938 35.377 121.937C35.4855 121.992 35.605 122.023 35.7268 122.027H58.4289C58.5507 122.023 58.6702 121.992 58.7788 121.937C58.8087 121.917 58.8287 121.897 58.8587 121.877C58.9395 121.826 59.0079 121.758 59.0587 121.677C59.0687 121.657 59.0886 121.647 59.1086 121.627L70.3247 102.202L81.5407 121.627L81.5708 121.657C81.5909 121.689 81.6143 121.719 81.6407 121.747C81.6807 121.787 81.7206 121.817 81.7606 121.857C81.7906 121.877 81.8006 121.907 81.8306 121.917C81.8423 121.925 81.8565 121.928 81.8706 121.927C81.9791 121.982 82.0986 122.013 82.2204 122.017H104.923C105.044 122.013 105.164 121.982 105.272 121.927C105.302 121.907 105.322 121.887 105.352 121.867C105.433 121.816 105.501 121.748 105.552 121.667C105.562 121.647 105.582 121.637 105.602 121.617L116.898 101.962ZM104.413 120.447H83.52L93.9663 102.352H114.859L104.413 120.447ZM57.9291 120.447H37.0364L59.3785 81.7572H80.2712L57.9291 120.447ZM13.7946 80.1776L24.2409 62.0823H68.9152L58.4688 80.1776H13.7946ZM12.4351 43.2071L22.8814 61.3025L12.4351 79.3978L1.98874 61.3025L12.4351 43.2071ZM25.2305 21.0328L35.6769 2.93742L58.019 41.6275L47.5728 59.7229L25.2305 21.0328ZM82.1705 2.94742L92.6168 21.0428L70.2847 59.7329L59.8383 41.6375L82.1705 2.94742ZM104.413 2.15762L114.859 20.253H93.9663L83.52 2.15762H104.413ZM127.664 42.4273L138.111 60.5227H93.4366L82.9902 42.4273H127.664ZM81.6207 43.2071L91.6071 60.5127H71.6242L81.6207 43.2071ZM68.9152 60.5127H48.9323L58.9187 43.2071L68.9152 60.5127ZM70.2747 62.8721L80.2612 80.1776H60.2782L70.2747 62.8721ZM71.6342 62.0923H92.5168L114.849 100.782H93.9563L71.6342 62.0923ZM94.3362 62.0923H138.101L127.654 80.1876H104.773L94.3362 62.0923ZM82.9902 40.8477L93.9763 21.8226H114.869L103.883 40.8477H82.9902ZM58.9187 40.0679L37.0364 2.15762H57.9291L69.375 21.9725L58.9187 40.0679ZM46.2032 60.5127H24.2309L13.7846 42.4173H35.7569L46.2032 60.5127ZM57.5592 81.7572L35.6769 119.668L25.2305 101.572L36.6666 81.7572H57.5592ZM81.6207 82.537L92.6068 101.562L82.1605 119.657L71.1744 100.622L81.6207 82.537Z" fill="white"/>
</g>
</svg>
