<svg width="141" height="127" viewBox="0 0 141 127" fill="none" xmlns="http://www.w3.org/2000/svg">
<g id="Frame">
<path id="Vector" d="M115.171 0.38147L88.9967 15.3781L89.0466 54.4195L52.6148 14.8683L25.9107 0.391468L0.656242 14.6683V95.8603L26.1806 110.107L52.3748 95.6104V88.9519L87.9469 126.244L140.625 95.8303V14.6683L115.171 0.38147ZM91.4461 18.1775L116.111 32.3244V83.793L91.4862 57.0689L91.4461 18.1775ZM3.10571 17.4777L25.4607 30.3848L87.0771 96.5902L87.0971 121.785L25.0409 56.719V106.658L3.10571 94.4306V17.4777ZM49.9254 86.6024V94.1807L27.3704 106.658V62.7776L50.0653 86.6024H49.9254ZM138.296 94.4406L89.5265 122.584L89.5066 95.6404L26.9904 28.4753L4.33542 15.3981L25.9506 3.17085L51.125 16.8178L118.56 90.0116V30.9147L92.6758 16.078L115.241 3.16085L138.296 16.078V94.4406Z" fill="white"/>
</g>
</svg>
