<svg width="151" height="141" viewBox="0 0 151 141" fill="none" xmlns="http://www.w3.org/2000/svg">
<path d="M0.697506 100.113C0.70814 100.168 0.724909 100.222 0.747498 100.273C0.757497 100.303 0.767496 100.343 0.777494 100.373L12.1858 120.13L12.2158 120.16C12.2358 120.19 12.2558 120.22 12.2858 120.26C12.3244 120.302 12.3681 120.339 12.4158 120.37C12.4458 120.39 12.4658 120.42 12.4958 120.44C12.5075 120.448 12.5217 120.452 12.5358 120.45C12.649 120.513 12.776 120.548 12.9057 120.55H58.0391L69.2075 139.887L69.2374 139.917C69.2574 139.947 69.2774 139.977 69.3074 140.017C69.346 140.059 69.3897 140.096 69.4374 140.127C69.4674 140.147 69.4874 140.177 69.5174 140.197C69.5291 140.205 69.5433 140.209 69.5574 140.207C69.6706 140.271 69.7977 140.305 69.9273 140.307H138.367C138.5 140.305 138.63 140.271 138.747 140.207L138.837 140.147C138.922 140.09 138.997 140.019 139.057 139.937C139.067 139.917 139.097 139.907 139.107 139.887L150.516 120.13C150.526 120.11 150.525 120.1 150.536 120.08C150.553 120.049 150.567 120.015 150.576 119.98C150.586 119.94 150.596 119.91 150.605 119.87C150.614 119.834 150.617 119.797 150.615 119.76C150.615 119.74 150.626 119.73 150.626 119.71C150.626 119.69 150.615 119.68 150.615 119.66C150.615 119.62 150.605 119.59 150.605 119.55C150.605 119.51 150.586 119.48 150.576 119.44C150.564 119.406 150.551 119.373 150.536 119.34C150.525 119.32 150.526 119.31 150.516 119.29L127.949 80.206L139.107 60.8689C139.117 60.8489 139.117 60.8389 139.127 60.8189C139.145 60.7874 139.158 60.7538 139.167 60.7189C139.177 60.6789 139.187 60.6489 139.197 60.6089C139.205 60.5729 139.209 60.5359 139.207 60.4989C139.207 60.4789 139.217 60.4689 139.217 60.4489C139.217 60.4289 139.207 60.4189 139.207 60.3989C139.207 60.3589 139.197 60.3289 139.197 60.289C139.197 60.249 139.177 60.219 139.167 60.179C139.156 60.145 139.142 60.1116 139.127 60.079C139.117 60.059 139.117 60.049 139.107 60.029L104.902 0.747686C104.882 0.71769 104.852 0.697693 104.832 0.667698C104.798 0.622323 104.761 0.578926 104.722 0.537717C104.681 0.504384 104.638 0.474297 104.592 0.44773C104.549 0.418495 104.502 0.394972 104.452 0.37774C104.394 0.358611 104.333 0.345216 104.272 0.337746C104.242 0.337746 104.212 0.317749 104.172 0.317749H81.3557C81.3357 0.317749 81.3257 0.327748 81.3057 0.327748C81.2657 0.327748 81.2357 0.337746 81.1957 0.337746L81.0757 0.367742C81.0457 0.37774 81.0057 0.397737 80.9757 0.407736C80.9457 0.417734 80.9457 0.417734 80.9257 0.427733C80.9143 0.440083 80.9008 0.450249 80.8857 0.457728C80.8534 0.477878 80.8232 0.501334 80.7958 0.527718C80.7666 0.551802 80.7398 0.578584 80.7158 0.607706C80.6958 0.637702 80.6658 0.667698 80.6458 0.697693C80.6334 0.709087 80.6233 0.722641 80.6158 0.737687L58.0491 39.8319H35.7324C35.7124 39.8319 35.7024 39.8419 35.6824 39.8419C35.6424 39.8419 35.6124 39.8519 35.5724 39.8519C35.5324 39.8519 35.4924 39.8719 35.4624 39.8819C35.4284 39.8935 35.395 39.9069 35.3624 39.9219C35.3424 39.9319 35.3324 39.9319 35.3124 39.9419C35.2924 39.9519 35.2924 39.9619 35.2724 39.9719C35.2401 39.9921 35.2099 40.0155 35.1824 40.0419C35.1533 40.066 35.1265 40.0928 35.1025 40.1219C35.0825 40.1519 35.0525 40.1819 35.0325 40.2119C35.0201 40.2233 35.01 40.2368 35.0025 40.2519L0.787493 99.5332C0.772953 99.565 0.76286 99.5986 0.757497 99.6332C0.736308 99.685 0.719583 99.7385 0.707504 99.7932C0.691633 99.8449 0.684867 99.8991 0.687507 99.9531C0.685852 100.007 0.689199 100.06 0.697506 100.113ZM103.682 2.0175L136.928 59.599H116.071L82.8155 2.0175H103.682ZM115.091 99.1133H94.2238L116.061 61.2788H136.928L115.091 99.1133ZM81.3557 2.85738L114.601 60.4389L92.764 98.2734L82.3355 80.196L93.5039 60.8589C93.5139 60.8389 93.5139 60.8289 93.5239 60.8089C93.5415 60.7774 93.5549 60.7438 93.5639 60.7089C93.5739 60.6689 93.5839 60.6389 93.5939 60.5989C93.6021 60.5629 93.6055 60.5259 93.6039 60.4889C93.6039 60.4689 93.6139 60.4589 93.6139 60.4389C93.6139 60.4189 93.6039 60.4089 93.6039 60.3889C93.6039 60.3489 93.5939 60.3189 93.5939 60.2789C93.5939 60.239 93.5739 60.209 93.5639 60.169C93.5523 60.135 93.5389 60.1016 93.5239 60.069C93.5139 60.049 93.5139 60.039 93.5039 60.019L82.0856 40.2619C82.0656 40.2319 82.0356 40.2119 82.0156 40.1819C81.9814 40.1365 81.9447 40.0931 81.9056 40.0519C81.8647 40.0186 81.8212 39.9885 81.7756 39.9619C81.731 39.9346 81.6842 39.9112 81.6356 39.8919C81.5811 39.8723 81.5236 39.8622 81.4657 39.8619C81.4357 39.8619 81.3957 39.8419 81.3657 39.8419H60.0088L81.3557 2.85738ZM58.549 41.5317H80.8757L91.3142 59.599H47.6306L37.1921 41.5317H58.549ZM35.7324 42.3716L46.1608 60.4389L12.9157 118.02L2.48724 99.9531L35.7324 42.3716ZM14.3855 118.86L47.6306 61.2788H91.3142L80.8757 79.3562H58.549C58.529 79.3562 58.519 79.3662 58.499 79.3662C58.459 79.3662 58.429 79.3762 58.389 79.3762L58.2691 79.4061C58.2391 79.4161 58.1991 79.4361 58.1691 79.4461C58.1391 79.4561 58.1391 79.4561 58.1191 79.4661C58.1077 79.4785 58.0941 79.4887 58.0791 79.4961C58.0467 79.5163 58.0166 79.5397 57.9891 79.5661C57.96 79.5902 57.9332 79.617 57.9091 79.6461C57.8891 79.6761 57.8591 79.7061 57.8391 79.7361C57.8291 79.7461 57.8091 79.7561 57.8091 79.7761L46.4008 99.5332C46.3863 99.565 46.3762 99.5986 46.3708 99.6332C46.3496 99.685 46.3329 99.7385 46.3208 99.7932C46.3122 99.846 46.3088 99.8996 46.3108 99.9531C46.3092 100.007 46.3125 100.06 46.3208 100.113C46.3314 100.168 46.3482 100.222 46.3708 100.273C46.3808 100.303 46.3908 100.343 46.4008 100.373L57.0792 118.86H14.3855ZM137.907 138.617H71.4171L81.8456 120.55H148.336L137.907 138.617ZM69.9573 137.778L48.1205 99.9531L58.559 81.8758L80.3958 119.7L69.9573 137.778ZM148.336 118.86H81.8456L60.0088 81.0359H80.8757L92.0441 100.373L92.0741 100.403C92.094 100.439 92.1175 100.472 92.1441 100.503C92.1827 100.545 92.2264 100.582 92.2741 100.613C92.3041 100.633 92.3241 100.663 92.3541 100.683C92.3658 100.691 92.38 100.695 92.3941 100.693C92.5072 100.756 92.6343 100.791 92.764 100.793H115.581C115.713 100.791 115.844 100.756 115.961 100.693L116.051 100.633C116.135 100.576 116.21 100.505 116.271 100.423C116.281 100.403 116.311 100.393 116.321 100.373L126.999 81.8758L148.336 118.86Z" fill="white"/>
</svg>
